<?xml version="1.0" encoding="utf-8" standalone="no"?>
<!DOCTYPE svg PUBLIC "-//W3C//DTD SVG 1.1//EN"
  "http://www.w3.org/Graphics/SVG/1.1/DTD/svg11.dtd">
<svg height="297.190125pt" version="1.1" viewBox="0 0 401.26142 297.190125" width="401.26142pt" xmlns="http://www.w3.org/2000/svg" xmlns:xlink="http://www.w3.org/1999/xlink">
 <metadata>
  <rdf:RDF xmlns:cc="http://creativecommons.org/ns#" xmlns:dc="http://purl.org/dc/elements/1.1/" xmlns:rdf="http://www.w3.org/1999/02/22-rdf-syntax-ns#">
   <cc:Work>
    <dc:type rdf:resource="http://purl.org/dc/dcmitype/StillImage"/>
    <dc:date>2021-09-01T15:06:11.828415</dc:date>
    <dc:format>image/svg+xml</dc:format>
    <dc:creator>
     <cc:Agent>
      <dc:title>Matplotlib v3.4.3, https://matplotlib.org/</dc:title>
     </cc:Agent>
    </dc:creator>
   </cc:Work>
  </rdf:RDF>
 </metadata>
 <defs>
  <style type="text/css">*{stroke-linecap:butt;stroke-linejoin:round;}</style>
 </defs>
 <g id="figure_1">
  <g id="patch_1">
   <path d="M 0 297.190125 
L 401.26142 297.190125 
L 401.26142 0 
L 0 0 
z
" style="fill:#ffffff;"/>
  </g>
  <g id="axes_1">
   <g id="patch_2">
    <path d="M 30.103125 273.312 
L 387.223125 273.312 
L 387.223125 7.2 
L 30.103125 7.2 
z
" style="fill:#ffffff;"/>
   </g>
   <g id="matplotlib.axis_1">
    <g id="xtick_1">
     <g id="line2d_1">
      <path clip-path="url(#p124e50f73b)" d="M 46.335852 273.312 
L 46.335852 7.2 
" style="fill:none;stroke:#b0b0b0;stroke-linecap:square;stroke-width:0.8;"/>
     </g>
     <g id="line2d_2">
      <defs>
       <path d="M 0 0 
L 0 3.5 
" id="madc9ccbfd6" style="stroke:#000000;stroke-width:0.8;"/>
      </defs>
      <g>
       <use style="stroke:#000000;stroke-width:0.8;" x="46.335852" xlink:href="#madc9ccbfd6" y="273.312"/>
      </g>
     </g>
     <g id="text_1">
      <!-- 0 -->
      <g transform="translate(43.154602 287.910437)scale(0.1 -0.1)">
       <defs>
        <path d="M 2034 4250 
Q 1547 4250 1301 3770 
Q 1056 3291 1056 2328 
Q 1056 1369 1301 889 
Q 1547 409 2034 409 
Q 2525 409 2770 889 
Q 3016 1369 3016 2328 
Q 3016 3291 2770 3770 
Q 2525 4250 2034 4250 
z
M 2034 4750 
Q 2819 4750 3233 4129 
Q 3647 3509 3647 2328 
Q 3647 1150 3233 529 
Q 2819 -91 2034 -91 
Q 1250 -91 836 529 
Q 422 1150 422 2328 
Q 422 3509 836 4129 
Q 1250 4750 2034 4750 
z
" id="DejaVuSans-30" transform="scale(0.015625)"/>
       </defs>
       <use xlink:href="#DejaVuSans-30"/>
      </g>
     </g>
    </g>
    <g id="xtick_2">
     <g id="line2d_3">
      <path clip-path="url(#p124e50f73b)" d="M 94.647541 273.312 
L 94.647541 7.2 
" style="fill:none;stroke:#b0b0b0;stroke-linecap:square;stroke-width:0.8;"/>
     </g>
     <g id="line2d_4">
      <g>
       <use style="stroke:#000000;stroke-width:0.8;" x="94.647541" xlink:href="#madc9ccbfd6" y="273.312"/>
      </g>
     </g>
     <g id="text_2">
      <!-- 50 -->
      <g transform="translate(88.285041 287.910437)scale(0.1 -0.1)">
       <defs>
        <path d="M 691 4666 
L 3169 4666 
L 3169 4134 
L 1269 4134 
L 1269 2991 
Q 1406 3038 1543 3061 
Q 1681 3084 1819 3084 
Q 2600 3084 3056 2656 
Q 3513 2228 3513 1497 
Q 3513 744 3044 326 
Q 2575 -91 1722 -91 
Q 1428 -91 1123 -41 
Q 819 9 494 109 
L 494 744 
Q 775 591 1075 516 
Q 1375 441 1709 441 
Q 2250 441 2565 725 
Q 2881 1009 2881 1497 
Q 2881 1984 2565 2268 
Q 2250 2553 1709 2553 
Q 1456 2553 1204 2497 
Q 953 2441 691 2322 
L 691 4666 
z
" id="DejaVuSans-35" transform="scale(0.015625)"/>
       </defs>
       <use xlink:href="#DejaVuSans-35"/>
       <use x="63.623047" xlink:href="#DejaVuSans-30"/>
      </g>
     </g>
    </g>
    <g id="xtick_3">
     <g id="line2d_5">
      <path clip-path="url(#p124e50f73b)" d="M 142.959229 273.312 
L 142.959229 7.2 
" style="fill:none;stroke:#b0b0b0;stroke-linecap:square;stroke-width:0.8;"/>
     </g>
     <g id="line2d_6">
      <g>
       <use style="stroke:#000000;stroke-width:0.8;" x="142.959229" xlink:href="#madc9ccbfd6" y="273.312"/>
      </g>
     </g>
     <g id="text_3">
      <!-- 100 -->
      <g transform="translate(133.415479 287.910437)scale(0.1 -0.1)">
       <defs>
        <path d="M 794 531 
L 1825 531 
L 1825 4091 
L 703 3866 
L 703 4441 
L 1819 4666 
L 2450 4666 
L 2450 531 
L 3481 531 
L 3481 0 
L 794 0 
L 794 531 
z
" id="DejaVuSans-31" transform="scale(0.015625)"/>
       </defs>
       <use xlink:href="#DejaVuSans-31"/>
       <use x="63.623047" xlink:href="#DejaVuSans-30"/>
       <use x="127.246094" xlink:href="#DejaVuSans-30"/>
      </g>
     </g>
    </g>
    <g id="xtick_4">
     <g id="line2d_7">
      <path clip-path="url(#p124e50f73b)" d="M 191.270917 273.312 
L 191.270917 7.2 
" style="fill:none;stroke:#b0b0b0;stroke-linecap:square;stroke-width:0.8;"/>
     </g>
     <g id="line2d_8">
      <g>
       <use style="stroke:#000000;stroke-width:0.8;" x="191.270917" xlink:href="#madc9ccbfd6" y="273.312"/>
      </g>
     </g>
     <g id="text_4">
      <!-- 150 -->
      <g transform="translate(181.727167 287.910437)scale(0.1 -0.1)">
       <use xlink:href="#DejaVuSans-31"/>
       <use x="63.623047" xlink:href="#DejaVuSans-35"/>
       <use x="127.246094" xlink:href="#DejaVuSans-30"/>
      </g>
     </g>
    </g>
    <g id="xtick_5">
     <g id="line2d_9">
      <path clip-path="url(#p124e50f73b)" d="M 239.582606 273.312 
L 239.582606 7.2 
" style="fill:none;stroke:#b0b0b0;stroke-linecap:square;stroke-width:0.8;"/>
     </g>
     <g id="line2d_10">
      <g>
       <use style="stroke:#000000;stroke-width:0.8;" x="239.582606" xlink:href="#madc9ccbfd6" y="273.312"/>
      </g>
     </g>
     <g id="text_5">
      <!-- 200 -->
      <g transform="translate(230.038856 287.910437)scale(0.1 -0.1)">
       <defs>
        <path d="M 1228 531 
L 3431 531 
L 3431 0 
L 469 0 
L 469 531 
Q 828 903 1448 1529 
Q 2069 2156 2228 2338 
Q 2531 2678 2651 2914 
Q 2772 3150 2772 3378 
Q 2772 3750 2511 3984 
Q 2250 4219 1831 4219 
Q 1534 4219 1204 4116 
Q 875 4013 500 3803 
L 500 4441 
Q 881 4594 1212 4672 
Q 1544 4750 1819 4750 
Q 2544 4750 2975 4387 
Q 3406 4025 3406 3419 
Q 3406 3131 3298 2873 
Q 3191 2616 2906 2266 
Q 2828 2175 2409 1742 
Q 1991 1309 1228 531 
z
" id="DejaVuSans-32" transform="scale(0.015625)"/>
       </defs>
       <use xlink:href="#DejaVuSans-32"/>
       <use x="63.623047" xlink:href="#DejaVuSans-30"/>
       <use x="127.246094" xlink:href="#DejaVuSans-30"/>
      </g>
     </g>
    </g>
    <g id="xtick_6">
     <g id="line2d_11">
      <path clip-path="url(#p124e50f73b)" d="M 287.894294 273.312 
L 287.894294 7.2 
" style="fill:none;stroke:#b0b0b0;stroke-linecap:square;stroke-width:0.8;"/>
     </g>
     <g id="line2d_12">
      <g>
       <use style="stroke:#000000;stroke-width:0.8;" x="287.894294" xlink:href="#madc9ccbfd6" y="273.312"/>
      </g>
     </g>
     <g id="text_6">
      <!-- 250 -->
      <g transform="translate(278.350544 287.910437)scale(0.1 -0.1)">
       <use xlink:href="#DejaVuSans-32"/>
       <use x="63.623047" xlink:href="#DejaVuSans-35"/>
       <use x="127.246094" xlink:href="#DejaVuSans-30"/>
      </g>
     </g>
    </g>
    <g id="xtick_7">
     <g id="line2d_13">
      <path clip-path="url(#p124e50f73b)" d="M 336.205982 273.312 
L 336.205982 7.2 
" style="fill:none;stroke:#b0b0b0;stroke-linecap:square;stroke-width:0.8;"/>
     </g>
     <g id="line2d_14">
      <g>
       <use style="stroke:#000000;stroke-width:0.8;" x="336.205982" xlink:href="#madc9ccbfd6" y="273.312"/>
      </g>
     </g>
     <g id="text_7">
      <!-- 300 -->
      <g transform="translate(326.662232 287.910437)scale(0.1 -0.1)">
       <defs>
        <path d="M 2597 2516 
Q 3050 2419 3304 2112 
Q 3559 1806 3559 1356 
Q 3559 666 3084 287 
Q 2609 -91 1734 -91 
Q 1441 -91 1130 -33 
Q 819 25 488 141 
L 488 750 
Q 750 597 1062 519 
Q 1375 441 1716 441 
Q 2309 441 2620 675 
Q 2931 909 2931 1356 
Q 2931 1769 2642 2001 
Q 2353 2234 1838 2234 
L 1294 2234 
L 1294 2753 
L 1863 2753 
Q 2328 2753 2575 2939 
Q 2822 3125 2822 3475 
Q 2822 3834 2567 4026 
Q 2313 4219 1838 4219 
Q 1578 4219 1281 4162 
Q 984 4106 628 3988 
L 628 4550 
Q 988 4650 1302 4700 
Q 1616 4750 1894 4750 
Q 2613 4750 3031 4423 
Q 3450 4097 3450 3541 
Q 3450 3153 3228 2886 
Q 3006 2619 2597 2516 
z
" id="DejaVuSans-33" transform="scale(0.015625)"/>
       </defs>
       <use xlink:href="#DejaVuSans-33"/>
       <use x="63.623047" xlink:href="#DejaVuSans-30"/>
       <use x="127.246094" xlink:href="#DejaVuSans-30"/>
      </g>
     </g>
    </g>
    <g id="xtick_8">
     <g id="line2d_15">
      <path clip-path="url(#p124e50f73b)" d="M 384.51767 273.312 
L 384.51767 7.2 
" style="fill:none;stroke:#b0b0b0;stroke-linecap:square;stroke-width:0.8;"/>
     </g>
     <g id="line2d_16">
      <g>
       <use style="stroke:#000000;stroke-width:0.8;" x="384.51767" xlink:href="#madc9ccbfd6" y="273.312"/>
      </g>
     </g>
     <g id="text_8">
      <!-- 350 -->
      <g transform="translate(374.97392 287.910437)scale(0.1 -0.1)">
       <use xlink:href="#DejaVuSans-33"/>
       <use x="63.623047" xlink:href="#DejaVuSans-35"/>
       <use x="127.246094" xlink:href="#DejaVuSans-30"/>
      </g>
     </g>
    </g>
   </g>
   <g id="matplotlib.axis_2">
    <g id="ytick_1">
     <g id="line2d_17">
      <path clip-path="url(#p124e50f73b)" d="M 30.103125 256.557622 
L 387.223125 256.557622 
" style="fill:none;stroke:#b0b0b0;stroke-linecap:square;stroke-width:0.8;"/>
     </g>
     <g id="line2d_18">
      <defs>
       <path d="M 0 0 
L -3.5 0 
" id="m4775d111bc" style="stroke:#000000;stroke-width:0.8;"/>
      </defs>
      <g>
       <use style="stroke:#000000;stroke-width:0.8;" x="30.103125" xlink:href="#m4775d111bc" y="256.557622"/>
      </g>
     </g>
     <g id="text_9">
      <!-- 0.5 -->
      <g transform="translate(7.2 260.356841)scale(0.1 -0.1)">
       <defs>
        <path d="M 684 794 
L 1344 794 
L 1344 0 
L 684 0 
L 684 794 
z
" id="DejaVuSans-2e" transform="scale(0.015625)"/>
       </defs>
       <use xlink:href="#DejaVuSans-30"/>
       <use x="63.623047" xlink:href="#DejaVuSans-2e"/>
       <use x="95.410156" xlink:href="#DejaVuSans-35"/>
      </g>
     </g>
    </g>
    <g id="ytick_2">
     <g id="line2d_19">
      <path clip-path="url(#p124e50f73b)" d="M 30.103125 204.462709 
L 387.223125 204.462709 
" style="fill:none;stroke:#b0b0b0;stroke-linecap:square;stroke-width:0.8;"/>
     </g>
     <g id="line2d_20">
      <g>
       <use style="stroke:#000000;stroke-width:0.8;" x="30.103125" xlink:href="#m4775d111bc" y="204.462709"/>
      </g>
     </g>
     <g id="text_10">
      <!-- 0.6 -->
      <g transform="translate(7.2 208.261928)scale(0.1 -0.1)">
       <defs>
        <path d="M 2113 2584 
Q 1688 2584 1439 2293 
Q 1191 2003 1191 1497 
Q 1191 994 1439 701 
Q 1688 409 2113 409 
Q 2538 409 2786 701 
Q 3034 994 3034 1497 
Q 3034 2003 2786 2293 
Q 2538 2584 2113 2584 
z
M 3366 4563 
L 3366 3988 
Q 3128 4100 2886 4159 
Q 2644 4219 2406 4219 
Q 1781 4219 1451 3797 
Q 1122 3375 1075 2522 
Q 1259 2794 1537 2939 
Q 1816 3084 2150 3084 
Q 2853 3084 3261 2657 
Q 3669 2231 3669 1497 
Q 3669 778 3244 343 
Q 2819 -91 2113 -91 
Q 1303 -91 875 529 
Q 447 1150 447 2328 
Q 447 3434 972 4092 
Q 1497 4750 2381 4750 
Q 2619 4750 2861 4703 
Q 3103 4656 3366 4563 
z
" id="DejaVuSans-36" transform="scale(0.015625)"/>
       </defs>
       <use xlink:href="#DejaVuSans-30"/>
       <use x="63.623047" xlink:href="#DejaVuSans-2e"/>
       <use x="95.410156" xlink:href="#DejaVuSans-36"/>
      </g>
     </g>
    </g>
    <g id="ytick_3">
     <g id="line2d_21">
      <path clip-path="url(#p124e50f73b)" d="M 30.103125 152.367796 
L 387.223125 152.367796 
" style="fill:none;stroke:#b0b0b0;stroke-linecap:square;stroke-width:0.8;"/>
     </g>
     <g id="line2d_22">
      <g>
       <use style="stroke:#000000;stroke-width:0.8;" x="30.103125" xlink:href="#m4775d111bc" y="152.367796"/>
      </g>
     </g>
     <g id="text_11">
      <!-- 0.7 -->
      <g transform="translate(7.2 156.167015)scale(0.1 -0.1)">
       <defs>
        <path d="M 525 4666 
L 3525 4666 
L 3525 4397 
L 1831 0 
L 1172 0 
L 2766 4134 
L 525 4134 
L 525 4666 
z
" id="DejaVuSans-37" transform="scale(0.015625)"/>
       </defs>
       <use xlink:href="#DejaVuSans-30"/>
       <use x="63.623047" xlink:href="#DejaVuSans-2e"/>
       <use x="95.410156" xlink:href="#DejaVuSans-37"/>
      </g>
     </g>
    </g>
    <g id="ytick_4">
     <g id="line2d_23">
      <path clip-path="url(#p124e50f73b)" d="M 30.103125 100.272884 
L 387.223125 100.272884 
" style="fill:none;stroke:#b0b0b0;stroke-linecap:square;stroke-width:0.8;"/>
     </g>
     <g id="line2d_24">
      <g>
       <use style="stroke:#000000;stroke-width:0.8;" x="30.103125" xlink:href="#m4775d111bc" y="100.272884"/>
      </g>
     </g>
     <g id="text_12">
      <!-- 0.8 -->
      <g transform="translate(7.2 104.072102)scale(0.1 -0.1)">
       <defs>
        <path d="M 2034 2216 
Q 1584 2216 1326 1975 
Q 1069 1734 1069 1313 
Q 1069 891 1326 650 
Q 1584 409 2034 409 
Q 2484 409 2743 651 
Q 3003 894 3003 1313 
Q 3003 1734 2745 1975 
Q 2488 2216 2034 2216 
z
M 1403 2484 
Q 997 2584 770 2862 
Q 544 3141 544 3541 
Q 544 4100 942 4425 
Q 1341 4750 2034 4750 
Q 2731 4750 3128 4425 
Q 3525 4100 3525 3541 
Q 3525 3141 3298 2862 
Q 3072 2584 2669 2484 
Q 3125 2378 3379 2068 
Q 3634 1759 3634 1313 
Q 3634 634 3220 271 
Q 2806 -91 2034 -91 
Q 1263 -91 848 271 
Q 434 634 434 1313 
Q 434 1759 690 2068 
Q 947 2378 1403 2484 
z
M 1172 3481 
Q 1172 3119 1398 2916 
Q 1625 2713 2034 2713 
Q 2441 2713 2670 2916 
Q 2900 3119 2900 3481 
Q 2900 3844 2670 4047 
Q 2441 4250 2034 4250 
Q 1625 4250 1398 4047 
Q 1172 3844 1172 3481 
z
" id="DejaVuSans-38" transform="scale(0.015625)"/>
       </defs>
       <use xlink:href="#DejaVuSans-30"/>
       <use x="63.623047" xlink:href="#DejaVuSans-2e"/>
       <use x="95.410156" xlink:href="#DejaVuSans-38"/>
      </g>
     </g>
    </g>
    <g id="ytick_5">
     <g id="line2d_25">
      <path clip-path="url(#p124e50f73b)" d="M 30.103125 48.177971 
L 387.223125 48.177971 
" style="fill:none;stroke:#b0b0b0;stroke-linecap:square;stroke-width:0.8;"/>
     </g>
     <g id="line2d_26">
      <g>
       <use style="stroke:#000000;stroke-width:0.8;" x="30.103125" xlink:href="#m4775d111bc" y="48.177971"/>
      </g>
     </g>
     <g id="text_13">
      <!-- 0.9 -->
      <g transform="translate(7.2 51.977189)scale(0.1 -0.1)">
       <defs>
        <path d="M 703 97 
L 703 672 
Q 941 559 1184 500 
Q 1428 441 1663 441 
Q 2288 441 2617 861 
Q 2947 1281 2994 2138 
Q 2813 1869 2534 1725 
Q 2256 1581 1919 1581 
Q 1219 1581 811 2004 
Q 403 2428 403 3163 
Q 403 3881 828 4315 
Q 1253 4750 1959 4750 
Q 2769 4750 3195 4129 
Q 3622 3509 3622 2328 
Q 3622 1225 3098 567 
Q 2575 -91 1691 -91 
Q 1453 -91 1209 -44 
Q 966 3 703 97 
z
M 1959 2075 
Q 2384 2075 2632 2365 
Q 2881 2656 2881 3163 
Q 2881 3666 2632 3958 
Q 2384 4250 1959 4250 
Q 1534 4250 1286 3958 
Q 1038 3666 1038 3163 
Q 1038 2656 1286 2365 
Q 1534 2075 1959 2075 
z
" id="DejaVuSans-39" transform="scale(0.015625)"/>
       </defs>
       <use xlink:href="#DejaVuSans-30"/>
       <use x="63.623047" xlink:href="#DejaVuSans-2e"/>
       <use x="95.410156" xlink:href="#DejaVuSans-39"/>
      </g>
     </g>
    </g>
   </g>
   <g id="line2d_27">
    <path clip-path="url(#p124e50f73b)" d="M 46.335852 261.216 
L 47.302086 243.845782 
L 48.26832 252.057154 
L 49.234554 246.846084 
L 50.200787 246.214445 
L 51.167021 249.372672 
L 52.133255 257.110314 
L 53.099489 256.004946 
L 54.065722 256.16284 
L 55.031956 253.004613 
L 55.99819 253.636252 
L 56.964424 249.688492 
L 57.930657 242.582473 
L 58.896891 254.267922 
L 59.863125 239.108426 
L 60.829359 255.531201 
L 61.795593 248.741002 
L 62.761826 241.161269 
L 63.72806 242.898293 
L 64.694294 245.42488 
L 65.660528 247.161904 
L 67.592995 244.793241 
L 70.491696 239.108426 
L 71.45793 239.582171 
L 72.424164 238.003042 
L 73.390398 233.739462 
L 74.356631 244.319496 
L 75.322865 237.529328 
L 76.289099 235.160666 
L 77.255333 238.318862 
L 78.221567 240.84545 
L 79.1878 237.687223 
L 80.154034 239.424246 
L 81.120268 236.266019 
L 82.086502 224.264781 
L 83.052735 237.687223 
L 84.018969 236.266019 
L 84.985203 233.423643 
L 85.951437 236.266019 
L 86.91767 229.160031 
L 87.883904 228.528392 
L 88.850138 228.686287 
L 89.816372 230.42331 
L 90.782606 230.42331 
L 91.748839 228.686287 
L 92.715073 223.948962 
L 93.681307 224.264781 
L 94.647541 228.370467 
L 95.613774 220.632809 
L 96.580008 224.264781 
L 97.546242 221.580299 
L 98.512476 223.475217 
L 99.478709 214.158461 
L 100.444943 216.053379 
L 101.411177 220.31699 
L 102.377411 217.790402 
L 103.343644 216.842943 
L 104.309878 217.790402 
L 105.276112 217.948327 
L 106.242346 220.159095 
L 107.20858 214.000536 
L 108.174813 213.526822 
L 109.141047 215.10592 
L 110.107281 206.104984 
L 111.073515 212.895183 
L 112.039748 214.948025 
L 113.005982 215.421739 
L 113.972216 207.368262 
L 114.93845 207.999932 
L 115.904683 206.894548 
L 116.870917 198.367326 
L 117.837151 202.946757 
L 118.803385 210.526489 
L 119.769619 199.47271 
L 120.735852 200.736019 
L 121.702086 197.419867 
L 122.66832 197.577792 
L 123.634554 193.630001 
L 124.600787 195.840769 
L 125.567021 194.419565 
L 126.533255 188.103111 
L 127.499489 189.524315 
L 128.465722 182.734116 
L 129.431956 178.94425 
L 130.39819 188.892676 
L 131.364424 178.62843 
L 132.330657 179.733814 
L 133.296891 188.103111 
L 134.263125 180.523379 
L 135.229359 175.470203 
L 136.195593 177.680972 
L 137.161826 175.943948 
L 138.12806 171.206592 
L 139.094294 170.732878 
L 140.060528 178.62843 
L 141.026761 162.363581 
L 141.992995 167.574651 
L 142.959229 164.574319 
L 143.925463 169.785419 
L 144.891696 171.048698 
L 145.85793 158.41579 
L 146.824164 166.627192 
L 147.790398 159.047429 
L 148.756631 156.678767 
L 149.722865 158.09997 
L 150.689099 153.994284 
L 151.655333 152.731006 
L 152.621567 157.626225 
L 153.5878 150.046493 
L 154.554034 150.204418 
L 155.520268 153.836359 
L 156.486502 146.572446 
L 157.452735 140.571843 
L 158.418969 141.993016 
L 159.385203 150.836057 
L 160.351437 142.940505 
L 161.31767 150.362312 
L 162.283904 141.835121 
L 163.250138 137.413616 
L 164.216372 139.940173 
L 165.182606 138.045255 
L 166.148839 140.571843 
L 167.115073 137.097796 
L 168.081307 136.781946 
L 169.047541 126.201912 
L 170.013774 126.833551 
L 170.980008 128.728499 
L 171.946242 127.46519 
L 172.912476 134.413283 
L 173.878709 129.044319 
L 174.844943 123.043684 
L 175.811177 122.56994 
L 176.777411 129.518033 
L 177.743644 125.254453 
L 178.709878 125.412347 
L 179.676112 122.727865 
L 180.642346 118.464254 
L 182.574813 115.306027 
L 183.541047 115.306027 
L 184.507281 116.569336 
L 185.473515 114.516462 
L 186.439748 109.305392 
L 187.405982 110.252882 
L 188.372216 110.410776 
L 189.33845 109.779137 
L 190.304683 100.146562 
L 191.270917 108.200039 
L 192.237151 103.936428 
L 193.203385 108.515859 
L 194.169619 105.831346 
L 195.135852 102.357299 
L 196.102086 100.304456 
L 197.06832 101.883585 
L 198.034554 102.199405 
L 199.000787 100.778201 
L 199.967021 94.935492 
L 200.933255 93.672183 
L 201.899489 97.304155 
L 202.865722 96.19877 
L 204.79819 89.250677 
L 205.764424 93.198469 
L 206.730657 87.513654 
L 207.696891 91.935159 
L 208.663125 86.09245 
L 209.629359 82.460509 
L 210.595593 87.513654 
L 211.561826 81.828839 
L 212.52806 82.14469 
L 213.494294 84.039607 
L 214.460528 79.460177 
L 215.426761 84.355427 
L 216.392995 86.09245 
L 217.359229 83.565862 
L 218.325463 80.091816 
L 219.291696 82.776329 
L 220.25793 78.828537 
L 221.224164 78.512718 
L 222.190398 77.565259 
L 223.156631 74.880746 
L 224.122865 72.827903 
L 225.089099 73.775393 
L 226.055333 69.353856 
L 227.021567 74.880746 
L 227.9878 73.775393 
L 228.954034 68.406397 
L 229.920268 73.301648 
L 230.886502 71.564625 
L 231.852735 67.774758 
L 232.818969 71.248805 
L 234.751437 64.300712 
L 235.71767 64.142786 
L 236.683904 62.247869 
L 237.650138 59.721281 
L 238.616372 68.406397 
L 239.582606 63.826967 
L 240.548839 63.826967 
L 241.515073 59.247536 
L 242.481307 65.090276 
L 243.447541 61.300379 
L 244.413774 62.563688 
L 245.380008 62.247869 
L 246.346242 65.090276 
L 247.312476 55.773489 
L 248.278709 57.510513 
L 249.244943 63.037402 
L 251.177411 51.667804 
L 252.143644 55.14185 
L 253.109878 57.826332 
L 254.076112 50.878239 
L 255.042346 52.615262 
L 256.00858 53.878572 
L 256.974813 55.931415 
L 257.941047 53.562752 
L 258.907281 56.40516 
L 259.873515 54.826031 
L 260.839748 57.984258 
L 261.805982 52.299443 
L 262.772216 50.720345 
L 263.73845 48.667502 
L 264.704683 53.246933 
L 266.637151 47.562118 
L 267.603385 46.614659 
L 268.569619 49.772886 
L 269.535852 46.930479 
L 270.502086 46.930479 
L 271.46832 47.088373 
L 272.434554 47.720043 
L 273.400787 49.93078 
L 274.367021 49.614961 
L 275.333255 47.088373 
L 276.299489 43.140612 
L 277.265722 41.877303 
L 278.231956 46.140914 
L 279.19819 46.456734 
L 281.130657 40.771919 
L 282.096891 44.088071 
L 283.063125 42.666867 
L 284.029359 39.666566 
L 284.995593 42.508973 
L 285.961826 42.351048 
L 286.92806 37.139978 
L 287.894294 41.877303 
L 288.860528 37.929542 
L 289.826761 37.297872 
L 290.792995 39.034896 
L 291.759229 42.193123 
L 292.725463 37.771617 
L 293.691696 34.455496 
L 294.65793 37.455798 
L 295.624164 36.508339 
L 296.590398 38.403256 
L 297.556631 36.982053 
L 298.522865 34.771315 
L 299.489099 37.297872 
L 300.455333 38.087437 
L 301.421567 36.034594 
L 302.3878 31.928908 
L 303.354034 35.718774 
L 304.320268 33.665931 
L 305.286502 35.8767 
L 306.252735 32.560547 
L 307.218969 34.455496 
L 308.185203 36.666233 
L 309.151437 34.61339 
L 310.11767 34.771315 
L 311.083904 32.244728 
L 312.050138 30.507704 
L 313.016372 29.560246 
L 313.982606 33.192186 
L 314.948839 33.192186 
L 315.915073 31.139344 
L 316.881307 34.455496 
L 317.847541 32.086802 
L 318.813774 30.981449 
L 319.780008 30.981449 
L 320.746242 31.455163 
L 321.712476 33.034292 
L 322.678709 36.034594 
L 323.644943 28.139042 
L 324.611177 29.086501 
L 325.577411 28.928606 
L 326.543644 30.981449 
L 327.509878 29.086501 
L 328.476112 30.507704 
L 329.442346 27.981117 
L 330.40858 29.71814 
L 331.374813 28.296936 
L 332.341047 30.981449 
L 333.307281 32.244728 
L 334.273515 29.086501 
L 335.239748 26.717838 
L 336.205982 26.086199 
L 337.172216 25.296634 
L 338.13845 27.981117 
L 339.104683 25.928274 
L 340.070917 26.559913 
L 341.037151 24.980815 
L 342.003385 28.928606 
L 342.969619 24.033356 
L 343.935852 25.612454 
L 344.902086 25.138709 
L 345.86832 24.033356 
L 346.834554 28.139042 
L 347.800787 24.980815 
L 348.767021 22.454227 
L 349.733255 24.19125 
L 350.699489 22.770047 
L 351.665722 25.45456 
L 352.631956 23.243792 
L 353.59819 24.033356 
L 354.564424 24.50707 
L 355.530657 23.875431 
L 356.496891 23.875431 
L 357.463125 22.612152 
L 358.429359 22.770047 
L 359.395593 21.033023 
L 360.361826 22.138407 
L 361.32806 19.453925 
L 362.294294 25.45456 
L 363.260528 22.612152 
L 364.226761 24.19125 
L 365.192995 21.348843 
L 366.159229 23.243792 
L 367.125463 21.822588 
L 368.091696 23.243792 
L 369.05793 19.296 
L 370.024164 24.19125 
L 370.990398 21.033023 
L 370.990398 21.033023 
" style="fill:none;stroke:#0000ff;stroke-dasharray:5.55,2.4;stroke-dashoffset:0;stroke-width:1.5;"/>
   </g>
   <g id="line2d_28">
    <path clip-path="url(#p124e50f73b)" d="M 46.335852 255.452362 
L 47.302086 252.136551 
L 48.26832 250.294452 
L 49.234554 247.715481 
L 50.200787 248.452321 
L 51.167021 246.241801 
L 52.133255 244.399701 
L 53.099489 242.92599 
L 54.065722 239.61021 
L 55.031956 239.241759 
L 55.99819 237.03124 
L 56.964424 235.92598 
L 57.930657 234.4523 
L 58.896891 232.610169 
L 59.863125 229.294358 
L 60.829359 229.662809 
L 61.795593 227.083838 
L 62.761826 225.610158 
L 63.72806 225.610158 
L 64.694294 224.504867 
L 65.660528 228.189098 
L 66.626761 226.715418 
L 67.592995 224.873318 
L 68.559229 227.452258 
L 70.491696 228.189098 
L 71.45793 225.241738 
L 72.424164 224.873318 
L 73.390398 223.399608 
L 74.356631 224.136447 
L 75.322865 222.662768 
L 76.289099 221.557508 
L 77.255333 221.557508 
L 78.221567 224.136447 
L 79.1878 222.662768 
L 80.154034 220.452248 
L 81.120268 220.452248 
L 82.086502 221.925928 
L 83.052735 220.452248 
L 84.018969 218.610117 
L 84.985203 220.820668 
L 85.951437 219.715408 
L 86.91767 218.241697 
L 88.850138 217.504857 
L 90.782606 207.925876 
L 91.748839 208.662716 
L 92.715073 208.662716 
L 93.681307 211.978526 
L 94.647541 213.452206 
L 95.613774 211.610106 
L 96.580008 213.083786 
L 97.546242 209.399556 
L 98.512476 208.662716 
L 99.478709 209.031136 
L 100.444943 204.241645 
L 101.411177 202.031125 
L 102.377411 203.136385 
L 103.343644 200.189025 
L 104.309878 207.189036 
L 105.276112 206.083776 
L 106.242346 206.820616 
L 107.20858 200.557445 
L 108.174813 200.925865 
L 109.141047 196.873214 
L 110.107281 197.610054 
L 111.073515 199.452154 
L 112.039748 193.188984 
L 113.005982 193.557404 
L 113.972216 192.820564 
L 114.93845 187.294233 
L 115.904683 190.241624 
L 116.870917 189.504753 
L 117.837151 187.294233 
L 118.803385 181.767903 
L 119.769619 191.715304 
L 120.735852 185.083682 
L 121.702086 185.452133 
L 122.66832 180.662643 
L 123.634554 179.557352 
L 124.600787 177.346832 
L 125.567021 167.767851 
L 126.533255 166.294171 
L 127.499489 153.767799 
L 128.465722 172.557341 
L 129.431956 175.873152 
L 130.39819 175.504732 
L 131.364424 162.60994 
L 132.330657 162.60994 
L 133.296891 167.031011 
L 134.263125 160.030969 
L 135.229359 155.978349 
L 136.195593 153.767799 
L 137.161826 153.030959 
L 138.12806 139.030907 
L 139.094294 142.715137 
L 140.060528 147.873048 
L 141.026761 148.609888 
L 141.992995 144.188817 
L 142.959229 138.294067 
L 143.925463 143.083557 
L 144.891696 136.820387 
L 145.85793 126.504565 
L 146.824164 130.188765 
L 147.790398 118.767684 
L 148.756631 121.346624 
L 149.722865 130.188765 
L 150.689099 116.188713 
L 151.655333 118.030844 
L 152.621567 112.872933 
L 153.5878 117.662424 
L 154.554034 115.451873 
L 155.520268 108.820283 
L 156.486502 115.451873 
L 157.452735 112.872933 
L 158.418969 107.346603 
L 159.385203 103.662372 
L 160.351437 104.030792 
L 161.31767 101.451821 
L 162.283904 101.451821 
L 163.250138 104.030792 
L 164.216372 102.925532 
L 165.182606 99.978141 
L 166.148839 99.978141 
L 167.115073 100.346561 
L 168.081307 98.504461 
L 169.047541 98.136042 
L 170.980008 90.39916 
L 171.946242 92.978131 
L 172.912476 94.451811 
L 173.878709 89.2939 
L 175.811177 94.451811 
L 176.777411 93.714971 
L 177.743644 94.083391 
L 178.709878 82.29389 
L 179.676112 89.66232 
L 180.642346 92.609711 
L 181.60858 92.609711 
L 182.574813 85.609669 
L 183.541047 90.03074 
L 184.507281 85.241249 
L 185.473515 89.66232 
L 186.439748 87.08338 
L 187.405982 82.66231 
L 188.372216 80.820179 
L 189.33845 84.504409 
L 190.304683 87.08338 
L 191.270917 86.346509 
L 192.237151 83.76757 
L 193.203385 83.39915 
L 194.169619 85.978089 
L 195.135852 80.820179 
L 196.102086 82.29389 
L 197.06832 95.925491 
L 198.034554 77.504399 
L 199.000787 83.39915 
L 199.967021 88.55706 
L 200.933255 76.030688 
L 201.899489 76.030688 
L 202.865722 87.4518 
L 203.831956 78.978079 
L 204.79819 78.241239 
L 205.764424 76.030688 
L 206.730657 76.767528 
L 207.696891 74.188588 
L 208.663125 75.662268 
L 209.629359 80.451759 
L 210.595593 78.241239 
L 211.561826 78.609659 
L 212.52806 80.820179 
L 213.494294 70.504357 
L 214.460528 77.872819 
L 215.426761 68.662258 
L 216.392995 71.241197 
L 217.359229 71.978037 
L 218.325463 75.662268 
L 219.291696 69.767518 
L 220.25793 72.346488 
L 221.224164 75.662268 
L 222.190398 68.662258 
L 223.156631 74.188588 
L 224.122865 74.188588 
L 225.089099 74.557008 
L 226.055333 73.451748 
L 227.021567 66.820127 
L 227.9878 66.820127 
L 228.954034 70.872777 
L 229.920268 65.714867 
L 230.886502 67.556998 
L 231.852735 62.399056 
L 232.818969 63.504347 
L 233.785203 65.714867 
L 234.751437 71.241197 
L 235.71767 69.030678 
L 236.683904 65.346447 
L 237.650138 76.767528 
L 238.616372 64.241187 
L 239.582606 63.872767 
L 240.548839 66.083287 
L 241.515073 69.399098 
L 242.481307 63.135927 
L 243.447541 66.083287 
L 244.413774 64.241187 
L 245.380008 65.714867 
L 246.346242 61.293796 
L 247.312476 59.820116 
L 248.278709 62.030636 
L 249.244943 60.556956 
L 250.211177 64.241187 
L 251.177411 59.083276 
L 252.143644 65.346447 
L 253.109878 60.556956 
L 254.076112 64.609607 
L 255.042346 64.241187 
L 256.00858 60.188536 
L 256.974813 59.820116 
L 257.941047 59.820116 
L 258.907281 61.293796 
L 259.873515 66.083287 
L 260.839748 60.925376 
L 261.805982 59.083276 
L 262.772216 62.399056 
L 263.73845 59.820116 
L 264.704683 59.820116 
L 265.670917 60.188536 
L 266.637151 58.346436 
L 267.603385 58.346436 
L 268.569619 58.714856 
L 269.535852 59.451696 
L 270.502086 57.241145 
L 271.46832 57.609596 
L 272.434554 56.872725 
L 273.400787 57.609596 
L 274.367021 56.872725 
L 275.333255 59.820116 
L 276.299489 56.872725 
L 277.265722 56.135886 
L 278.231956 57.241145 
L 279.19819 57.978016 
L 280.164424 57.978016 
L 281.130657 57.241145 
L 282.096891 56.135886 
L 284.029359 56.135886 
L 284.995593 54.662206 
L 285.961826 56.504305 
L 286.92806 55.767466 
L 287.894294 56.135886 
L 288.860528 53.925366 
L 289.826761 55.399046 
L 290.792995 55.030626 
L 291.759229 55.030626 
L 292.725463 54.662206 
L 294.65793 54.662206 
L 295.624164 53.925366 
L 296.590398 56.504305 
L 297.556631 54.662206 
L 298.522865 54.293786 
L 299.489099 54.293786 
L 300.455333 54.662206 
L 301.421567 53.556946 
L 302.3878 55.767466 
L 303.354034 53.925366 
L 304.320268 56.135886 
L 305.286502 54.293786 
L 306.252735 53.925366 
L 307.218969 55.030626 
L 309.151437 54.293786 
L 310.11767 55.030626 
L 311.083904 52.451655 
L 312.050138 54.293786 
L 313.016372 52.820106 
L 313.982606 52.820106 
L 314.948839 53.188526 
L 315.915073 55.399046 
L 316.881307 55.399046 
L 317.847541 55.030626 
L 318.813774 52.820106 
L 319.780008 53.188526 
L 320.746242 51.346395 
L 321.712476 52.451655 
L 322.678709 52.451655 
L 323.644943 53.925366 
L 324.611177 52.451655 
L 325.577411 52.083235 
L 326.543644 52.083235 
L 327.509878 51.714815 
L 328.476112 53.925366 
L 329.442346 52.083235 
L 330.40858 52.451655 
L 331.374813 52.083235 
L 333.307281 52.083235 
L 334.273515 52.451655 
L 335.239748 53.188526 
L 336.205982 52.083235 
L 337.172216 51.346395 
L 338.13845 52.820106 
L 339.104683 52.083235 
L 340.070917 52.451655 
L 341.037151 52.451655 
L 342.003385 52.083235 
L 342.969619 51.346395 
L 343.935852 52.451655 
L 347.800787 52.451655 
L 348.767021 51.714815 
L 349.733255 51.714815 
L 350.699489 53.556946 
L 351.665722 52.451655 
L 353.59819 50.977975 
L 354.564424 52.083235 
L 356.496891 51.346395 
L 357.463125 52.451655 
L 358.429359 52.451655 
L 359.395593 49.135875 
L 360.361826 51.714815 
L 361.32806 49.872715 
L 362.294294 50.977975 
L 363.260528 48.767455 
L 364.226761 50.241135 
L 365.192995 50.977975 
L 366.159229 50.977975 
L 367.125463 50.241135 
L 368.091696 52.083235 
L 369.05793 50.977975 
L 370.024164 52.083235 
L 370.990398 51.346395 
L 370.990398 51.346395 
" style="fill:none;stroke:#ff0000;stroke-dasharray:1.5,2.475;stroke-dashoffset:0;stroke-width:1.5;"/>
   </g>
   <g id="patch_3">
    <path d="M 30.103125 273.312 
L 30.103125 7.2 
" style="fill:none;stroke:#000000;stroke-linecap:square;stroke-linejoin:miter;stroke-width:0.8;"/>
   </g>
   <g id="patch_4">
    <path d="M 387.223125 273.312 
L 387.223125 7.2 
" style="fill:none;stroke:#000000;stroke-linecap:square;stroke-linejoin:miter;stroke-width:0.8;"/>
   </g>
   <g id="patch_5">
    <path d="M 30.103125 273.312 
L 387.223125 273.312 
" style="fill:none;stroke:#000000;stroke-linecap:square;stroke-linejoin:miter;stroke-width:0.8;"/>
   </g>
   <g id="patch_6">
    <path d="M 30.103125 7.2 
L 387.223125 7.2 
" style="fill:none;stroke:#000000;stroke-linecap:square;stroke-linejoin:miter;stroke-width:0.8;"/>
   </g>
   <g id="legend_1">
    <g id="patch_7">
     <path d="M 37.103125 44.55625 
L 112.68125 44.55625 
Q 114.68125 44.55625 114.68125 42.55625 
L 114.68125 14.2 
Q 114.68125 12.2 112.68125 12.2 
L 37.103125 12.2 
Q 35.103125 12.2 35.103125 14.2 
L 35.103125 42.55625 
Q 35.103125 44.55625 37.103125 44.55625 
z
" style="fill:#ffffff;opacity:0.8;stroke:#cccccc;stroke-linejoin:miter;"/>
    </g>
    <g id="line2d_29">
     <path d="M 39.103125 20.298437 
L 59.103125 20.298437 
" style="fill:none;stroke:#0000ff;stroke-dasharray:5.55,2.4;stroke-dashoffset:0;stroke-width:1.5;"/>
    </g>
    <g id="line2d_30"/>
    <g id="text_14">
     <!-- train acc -->
     <g transform="translate(67.103125 23.798437)scale(0.1 -0.1)">
      <defs>
       <path d="M 1172 4494 
L 1172 3500 
L 2356 3500 
L 2356 3053 
L 1172 3053 
L 1172 1153 
Q 1172 725 1289 603 
Q 1406 481 1766 481 
L 2356 481 
L 2356 0 
L 1766 0 
Q 1100 0 847 248 
Q 594 497 594 1153 
L 594 3053 
L 172 3053 
L 172 3500 
L 594 3500 
L 594 4494 
L 1172 4494 
z
" id="DejaVuSans-74" transform="scale(0.015625)"/>
       <path d="M 2631 2963 
Q 2534 3019 2420 3045 
Q 2306 3072 2169 3072 
Q 1681 3072 1420 2755 
Q 1159 2438 1159 1844 
L 1159 0 
L 581 0 
L 581 3500 
L 1159 3500 
L 1159 2956 
Q 1341 3275 1631 3429 
Q 1922 3584 2338 3584 
Q 2397 3584 2469 3576 
Q 2541 3569 2628 3553 
L 2631 2963 
z
" id="DejaVuSans-72" transform="scale(0.015625)"/>
       <path d="M 2194 1759 
Q 1497 1759 1228 1600 
Q 959 1441 959 1056 
Q 959 750 1161 570 
Q 1363 391 1709 391 
Q 2188 391 2477 730 
Q 2766 1069 2766 1631 
L 2766 1759 
L 2194 1759 
z
M 3341 1997 
L 3341 0 
L 2766 0 
L 2766 531 
Q 2569 213 2275 61 
Q 1981 -91 1556 -91 
Q 1019 -91 701 211 
Q 384 513 384 1019 
Q 384 1609 779 1909 
Q 1175 2209 1959 2209 
L 2766 2209 
L 2766 2266 
Q 2766 2663 2505 2880 
Q 2244 3097 1772 3097 
Q 1472 3097 1187 3025 
Q 903 2953 641 2809 
L 641 3341 
Q 956 3463 1253 3523 
Q 1550 3584 1831 3584 
Q 2591 3584 2966 3190 
Q 3341 2797 3341 1997 
z
" id="DejaVuSans-61" transform="scale(0.015625)"/>
       <path d="M 603 3500 
L 1178 3500 
L 1178 0 
L 603 0 
L 603 3500 
z
M 603 4863 
L 1178 4863 
L 1178 4134 
L 603 4134 
L 603 4863 
z
" id="DejaVuSans-69" transform="scale(0.015625)"/>
       <path d="M 3513 2113 
L 3513 0 
L 2938 0 
L 2938 2094 
Q 2938 2591 2744 2837 
Q 2550 3084 2163 3084 
Q 1697 3084 1428 2787 
Q 1159 2491 1159 1978 
L 1159 0 
L 581 0 
L 581 3500 
L 1159 3500 
L 1159 2956 
Q 1366 3272 1645 3428 
Q 1925 3584 2291 3584 
Q 2894 3584 3203 3211 
Q 3513 2838 3513 2113 
z
" id="DejaVuSans-6e" transform="scale(0.015625)"/>
       <path id="DejaVuSans-20" transform="scale(0.015625)"/>
       <path d="M 3122 3366 
L 3122 2828 
Q 2878 2963 2633 3030 
Q 2388 3097 2138 3097 
Q 1578 3097 1268 2742 
Q 959 2388 959 1747 
Q 959 1106 1268 751 
Q 1578 397 2138 397 
Q 2388 397 2633 464 
Q 2878 531 3122 666 
L 3122 134 
Q 2881 22 2623 -34 
Q 2366 -91 2075 -91 
Q 1284 -91 818 406 
Q 353 903 353 1747 
Q 353 2603 823 3093 
Q 1294 3584 2113 3584 
Q 2378 3584 2631 3529 
Q 2884 3475 3122 3366 
z
" id="DejaVuSans-63" transform="scale(0.015625)"/>
      </defs>
      <use xlink:href="#DejaVuSans-74"/>
      <use x="39.208984" xlink:href="#DejaVuSans-72"/>
      <use x="80.322266" xlink:href="#DejaVuSans-61"/>
      <use x="141.601562" xlink:href="#DejaVuSans-69"/>
      <use x="169.384766" xlink:href="#DejaVuSans-6e"/>
      <use x="232.763672" xlink:href="#DejaVuSans-20"/>
      <use x="264.550781" xlink:href="#DejaVuSans-61"/>
      <use x="325.830078" xlink:href="#DejaVuSans-63"/>
      <use x="380.810547" xlink:href="#DejaVuSans-63"/>
     </g>
    </g>
    <g id="line2d_31">
     <path d="M 39.103125 34.976562 
L 59.103125 34.976562 
" style="fill:none;stroke:#ff0000;stroke-dasharray:1.5,2.475;stroke-dashoffset:0;stroke-width:1.5;"/>
    </g>
    <g id="line2d_32"/>
    <g id="text_15">
     <!-- val acc -->
     <g transform="translate(67.103125 38.476562)scale(0.1 -0.1)">
      <defs>
       <path d="M 191 3500 
L 800 3500 
L 1894 563 
L 2988 3500 
L 3597 3500 
L 2284 0 
L 1503 0 
L 191 3500 
z
" id="DejaVuSans-76" transform="scale(0.015625)"/>
       <path d="M 603 4863 
L 1178 4863 
L 1178 0 
L 603 0 
L 603 4863 
z
" id="DejaVuSans-6c" transform="scale(0.015625)"/>
      </defs>
      <use xlink:href="#DejaVuSans-76"/>
      <use x="59.179688" xlink:href="#DejaVuSans-61"/>
      <use x="120.458984" xlink:href="#DejaVuSans-6c"/>
      <use x="148.242188" xlink:href="#DejaVuSans-20"/>
      <use x="180.029297" xlink:href="#DejaVuSans-61"/>
      <use x="241.308594" xlink:href="#DejaVuSans-63"/>
      <use x="296.289062" xlink:href="#DejaVuSans-63"/>
     </g>
    </g>
   </g>
  </g>
 </g>
 <defs>
  <clipPath id="p124e50f73b">
   <rect height="266.112" width="357.12" x="30.103125" y="7.2"/>
  </clipPath>
 </defs>
</svg>
