<?xml version="1.0" encoding="utf-8" standalone="no"?>
<!DOCTYPE svg PUBLIC "-//W3C//DTD SVG 1.1//EN"
  "http://www.w3.org/Graphics/SVG/1.1/DTD/svg11.dtd">
<svg height="297.190125pt" version="1.1" viewBox="0 0 401.26142 297.190125" width="401.26142pt" xmlns="http://www.w3.org/2000/svg" xmlns:xlink="http://www.w3.org/1999/xlink">
 <metadata>
  <rdf:RDF xmlns:cc="http://creativecommons.org/ns#" xmlns:dc="http://purl.org/dc/elements/1.1/" xmlns:rdf="http://www.w3.org/1999/02/22-rdf-syntax-ns#">
   <cc:Work>
    <dc:type rdf:resource="http://purl.org/dc/dcmitype/StillImage"/>
    <dc:date>2021-09-01T15:06:11.599135</dc:date>
    <dc:format>image/svg+xml</dc:format>
    <dc:creator>
     <cc:Agent>
      <dc:title>Matplotlib v3.4.3, https://matplotlib.org/</dc:title>
     </cc:Agent>
    </dc:creator>
   </cc:Work>
  </rdf:RDF>
 </metadata>
 <defs>
  <style type="text/css">*{stroke-linecap:butt;stroke-linejoin:round;}</style>
 </defs>
 <g id="figure_1">
  <g id="patch_1">
   <path d="M 0 297.190125 
L 401.26142 297.190125 
L 401.26142 0 
L 0 0 
z
" style="fill:#ffffff;"/>
  </g>
  <g id="axes_1">
   <g id="patch_2">
    <path d="M 30.103125 273.312 
L 387.223125 273.312 
L 387.223125 7.2 
L 30.103125 7.2 
z
" style="fill:#ffffff;"/>
   </g>
   <g id="matplotlib.axis_1">
    <g id="xtick_1">
     <g id="line2d_1">
      <path clip-path="url(#p09d443b377)" d="M 46.335852 273.312 
L 46.335852 7.2 
" style="fill:none;stroke:#b0b0b0;stroke-linecap:square;stroke-width:0.8;"/>
     </g>
     <g id="line2d_2">
      <defs>
       <path d="M 0 0 
L 0 3.5 
" id="m91138e2926" style="stroke:#000000;stroke-width:0.8;"/>
      </defs>
      <g>
       <use style="stroke:#000000;stroke-width:0.8;" x="46.335852" xlink:href="#m91138e2926" y="273.312"/>
      </g>
     </g>
     <g id="text_1">
      <!-- 0 -->
      <g transform="translate(43.154602 287.910437)scale(0.1 -0.1)">
       <defs>
        <path d="M 2034 4250 
Q 1547 4250 1301 3770 
Q 1056 3291 1056 2328 
Q 1056 1369 1301 889 
Q 1547 409 2034 409 
Q 2525 409 2770 889 
Q 3016 1369 3016 2328 
Q 3016 3291 2770 3770 
Q 2525 4250 2034 4250 
z
M 2034 4750 
Q 2819 4750 3233 4129 
Q 3647 3509 3647 2328 
Q 3647 1150 3233 529 
Q 2819 -91 2034 -91 
Q 1250 -91 836 529 
Q 422 1150 422 2328 
Q 422 3509 836 4129 
Q 1250 4750 2034 4750 
z
" id="DejaVuSans-30" transform="scale(0.015625)"/>
       </defs>
       <use xlink:href="#DejaVuSans-30"/>
      </g>
     </g>
    </g>
    <g id="xtick_2">
     <g id="line2d_3">
      <path clip-path="url(#p09d443b377)" d="M 94.647541 273.312 
L 94.647541 7.2 
" style="fill:none;stroke:#b0b0b0;stroke-linecap:square;stroke-width:0.8;"/>
     </g>
     <g id="line2d_4">
      <g>
       <use style="stroke:#000000;stroke-width:0.8;" x="94.647541" xlink:href="#m91138e2926" y="273.312"/>
      </g>
     </g>
     <g id="text_2">
      <!-- 50 -->
      <g transform="translate(88.285041 287.910437)scale(0.1 -0.1)">
       <defs>
        <path d="M 691 4666 
L 3169 4666 
L 3169 4134 
L 1269 4134 
L 1269 2991 
Q 1406 3038 1543 3061 
Q 1681 3084 1819 3084 
Q 2600 3084 3056 2656 
Q 3513 2228 3513 1497 
Q 3513 744 3044 326 
Q 2575 -91 1722 -91 
Q 1428 -91 1123 -41 
Q 819 9 494 109 
L 494 744 
Q 775 591 1075 516 
Q 1375 441 1709 441 
Q 2250 441 2565 725 
Q 2881 1009 2881 1497 
Q 2881 1984 2565 2268 
Q 2250 2553 1709 2553 
Q 1456 2553 1204 2497 
Q 953 2441 691 2322 
L 691 4666 
z
" id="DejaVuSans-35" transform="scale(0.015625)"/>
       </defs>
       <use xlink:href="#DejaVuSans-35"/>
       <use x="63.623047" xlink:href="#DejaVuSans-30"/>
      </g>
     </g>
    </g>
    <g id="xtick_3">
     <g id="line2d_5">
      <path clip-path="url(#p09d443b377)" d="M 142.959229 273.312 
L 142.959229 7.2 
" style="fill:none;stroke:#b0b0b0;stroke-linecap:square;stroke-width:0.8;"/>
     </g>
     <g id="line2d_6">
      <g>
       <use style="stroke:#000000;stroke-width:0.8;" x="142.959229" xlink:href="#m91138e2926" y="273.312"/>
      </g>
     </g>
     <g id="text_3">
      <!-- 100 -->
      <g transform="translate(133.415479 287.910437)scale(0.1 -0.1)">
       <defs>
        <path d="M 794 531 
L 1825 531 
L 1825 4091 
L 703 3866 
L 703 4441 
L 1819 4666 
L 2450 4666 
L 2450 531 
L 3481 531 
L 3481 0 
L 794 0 
L 794 531 
z
" id="DejaVuSans-31" transform="scale(0.015625)"/>
       </defs>
       <use xlink:href="#DejaVuSans-31"/>
       <use x="63.623047" xlink:href="#DejaVuSans-30"/>
       <use x="127.246094" xlink:href="#DejaVuSans-30"/>
      </g>
     </g>
    </g>
    <g id="xtick_4">
     <g id="line2d_7">
      <path clip-path="url(#p09d443b377)" d="M 191.270917 273.312 
L 191.270917 7.2 
" style="fill:none;stroke:#b0b0b0;stroke-linecap:square;stroke-width:0.8;"/>
     </g>
     <g id="line2d_8">
      <g>
       <use style="stroke:#000000;stroke-width:0.8;" x="191.270917" xlink:href="#m91138e2926" y="273.312"/>
      </g>
     </g>
     <g id="text_4">
      <!-- 150 -->
      <g transform="translate(181.727167 287.910437)scale(0.1 -0.1)">
       <use xlink:href="#DejaVuSans-31"/>
       <use x="63.623047" xlink:href="#DejaVuSans-35"/>
       <use x="127.246094" xlink:href="#DejaVuSans-30"/>
      </g>
     </g>
    </g>
    <g id="xtick_5">
     <g id="line2d_9">
      <path clip-path="url(#p09d443b377)" d="M 239.582606 273.312 
L 239.582606 7.2 
" style="fill:none;stroke:#b0b0b0;stroke-linecap:square;stroke-width:0.8;"/>
     </g>
     <g id="line2d_10">
      <g>
       <use style="stroke:#000000;stroke-width:0.8;" x="239.582606" xlink:href="#m91138e2926" y="273.312"/>
      </g>
     </g>
     <g id="text_5">
      <!-- 200 -->
      <g transform="translate(230.038856 287.910437)scale(0.1 -0.1)">
       <defs>
        <path d="M 1228 531 
L 3431 531 
L 3431 0 
L 469 0 
L 469 531 
Q 828 903 1448 1529 
Q 2069 2156 2228 2338 
Q 2531 2678 2651 2914 
Q 2772 3150 2772 3378 
Q 2772 3750 2511 3984 
Q 2250 4219 1831 4219 
Q 1534 4219 1204 4116 
Q 875 4013 500 3803 
L 500 4441 
Q 881 4594 1212 4672 
Q 1544 4750 1819 4750 
Q 2544 4750 2975 4387 
Q 3406 4025 3406 3419 
Q 3406 3131 3298 2873 
Q 3191 2616 2906 2266 
Q 2828 2175 2409 1742 
Q 1991 1309 1228 531 
z
" id="DejaVuSans-32" transform="scale(0.015625)"/>
       </defs>
       <use xlink:href="#DejaVuSans-32"/>
       <use x="63.623047" xlink:href="#DejaVuSans-30"/>
       <use x="127.246094" xlink:href="#DejaVuSans-30"/>
      </g>
     </g>
    </g>
    <g id="xtick_6">
     <g id="line2d_11">
      <path clip-path="url(#p09d443b377)" d="M 287.894294 273.312 
L 287.894294 7.2 
" style="fill:none;stroke:#b0b0b0;stroke-linecap:square;stroke-width:0.8;"/>
     </g>
     <g id="line2d_12">
      <g>
       <use style="stroke:#000000;stroke-width:0.8;" x="287.894294" xlink:href="#m91138e2926" y="273.312"/>
      </g>
     </g>
     <g id="text_6">
      <!-- 250 -->
      <g transform="translate(278.350544 287.910437)scale(0.1 -0.1)">
       <use xlink:href="#DejaVuSans-32"/>
       <use x="63.623047" xlink:href="#DejaVuSans-35"/>
       <use x="127.246094" xlink:href="#DejaVuSans-30"/>
      </g>
     </g>
    </g>
    <g id="xtick_7">
     <g id="line2d_13">
      <path clip-path="url(#p09d443b377)" d="M 336.205982 273.312 
L 336.205982 7.2 
" style="fill:none;stroke:#b0b0b0;stroke-linecap:square;stroke-width:0.8;"/>
     </g>
     <g id="line2d_14">
      <g>
       <use style="stroke:#000000;stroke-width:0.8;" x="336.205982" xlink:href="#m91138e2926" y="273.312"/>
      </g>
     </g>
     <g id="text_7">
      <!-- 300 -->
      <g transform="translate(326.662232 287.910437)scale(0.1 -0.1)">
       <defs>
        <path d="M 2597 2516 
Q 3050 2419 3304 2112 
Q 3559 1806 3559 1356 
Q 3559 666 3084 287 
Q 2609 -91 1734 -91 
Q 1441 -91 1130 -33 
Q 819 25 488 141 
L 488 750 
Q 750 597 1062 519 
Q 1375 441 1716 441 
Q 2309 441 2620 675 
Q 2931 909 2931 1356 
Q 2931 1769 2642 2001 
Q 2353 2234 1838 2234 
L 1294 2234 
L 1294 2753 
L 1863 2753 
Q 2328 2753 2575 2939 
Q 2822 3125 2822 3475 
Q 2822 3834 2567 4026 
Q 2313 4219 1838 4219 
Q 1578 4219 1281 4162 
Q 984 4106 628 3988 
L 628 4550 
Q 988 4650 1302 4700 
Q 1616 4750 1894 4750 
Q 2613 4750 3031 4423 
Q 3450 4097 3450 3541 
Q 3450 3153 3228 2886 
Q 3006 2619 2597 2516 
z
" id="DejaVuSans-33" transform="scale(0.015625)"/>
       </defs>
       <use xlink:href="#DejaVuSans-33"/>
       <use x="63.623047" xlink:href="#DejaVuSans-30"/>
       <use x="127.246094" xlink:href="#DejaVuSans-30"/>
      </g>
     </g>
    </g>
    <g id="xtick_8">
     <g id="line2d_15">
      <path clip-path="url(#p09d443b377)" d="M 384.51767 273.312 
L 384.51767 7.2 
" style="fill:none;stroke:#b0b0b0;stroke-linecap:square;stroke-width:0.8;"/>
     </g>
     <g id="line2d_16">
      <g>
       <use style="stroke:#000000;stroke-width:0.8;" x="384.51767" xlink:href="#m91138e2926" y="273.312"/>
      </g>
     </g>
     <g id="text_8">
      <!-- 350 -->
      <g transform="translate(374.97392 287.910437)scale(0.1 -0.1)">
       <use xlink:href="#DejaVuSans-33"/>
       <use x="63.623047" xlink:href="#DejaVuSans-35"/>
       <use x="127.246094" xlink:href="#DejaVuSans-30"/>
      </g>
     </g>
    </g>
   </g>
   <g id="matplotlib.axis_2">
    <g id="ytick_1">
     <g id="line2d_17">
      <path clip-path="url(#p09d443b377)" d="M 30.103125 269.428754 
L 387.223125 269.428754 
" style="fill:none;stroke:#b0b0b0;stroke-linecap:square;stroke-width:0.8;"/>
     </g>
     <g id="line2d_18">
      <defs>
       <path d="M 0 0 
L -3.5 0 
" id="m917e67637e" style="stroke:#000000;stroke-width:0.8;"/>
      </defs>
      <g>
       <use style="stroke:#000000;stroke-width:0.8;" x="30.103125" xlink:href="#m917e67637e" y="269.428754"/>
      </g>
     </g>
     <g id="text_9">
      <!-- 0.1 -->
      <g transform="translate(7.2 273.227972)scale(0.1 -0.1)">
       <defs>
        <path d="M 684 794 
L 1344 794 
L 1344 0 
L 684 0 
L 684 794 
z
" id="DejaVuSans-2e" transform="scale(0.015625)"/>
       </defs>
       <use xlink:href="#DejaVuSans-30"/>
       <use x="63.623047" xlink:href="#DejaVuSans-2e"/>
       <use x="95.410156" xlink:href="#DejaVuSans-31"/>
      </g>
     </g>
    </g>
    <g id="ytick_2">
     <g id="line2d_19">
      <path clip-path="url(#p09d443b377)" d="M 30.103125 227.42149 
L 387.223125 227.42149 
" style="fill:none;stroke:#b0b0b0;stroke-linecap:square;stroke-width:0.8;"/>
     </g>
     <g id="line2d_20">
      <g>
       <use style="stroke:#000000;stroke-width:0.8;" x="30.103125" xlink:href="#m917e67637e" y="227.42149"/>
      </g>
     </g>
     <g id="text_10">
      <!-- 0.2 -->
      <g transform="translate(7.2 231.220709)scale(0.1 -0.1)">
       <use xlink:href="#DejaVuSans-30"/>
       <use x="63.623047" xlink:href="#DejaVuSans-2e"/>
       <use x="95.410156" xlink:href="#DejaVuSans-32"/>
      </g>
     </g>
    </g>
    <g id="ytick_3">
     <g id="line2d_21">
      <path clip-path="url(#p09d443b377)" d="M 30.103125 185.414227 
L 387.223125 185.414227 
" style="fill:none;stroke:#b0b0b0;stroke-linecap:square;stroke-width:0.8;"/>
     </g>
     <g id="line2d_22">
      <g>
       <use style="stroke:#000000;stroke-width:0.8;" x="30.103125" xlink:href="#m917e67637e" y="185.414227"/>
      </g>
     </g>
     <g id="text_11">
      <!-- 0.3 -->
      <g transform="translate(7.2 189.213446)scale(0.1 -0.1)">
       <use xlink:href="#DejaVuSans-30"/>
       <use x="63.623047" xlink:href="#DejaVuSans-2e"/>
       <use x="95.410156" xlink:href="#DejaVuSans-33"/>
      </g>
     </g>
    </g>
    <g id="ytick_4">
     <g id="line2d_23">
      <path clip-path="url(#p09d443b377)" d="M 30.103125 143.406964 
L 387.223125 143.406964 
" style="fill:none;stroke:#b0b0b0;stroke-linecap:square;stroke-width:0.8;"/>
     </g>
     <g id="line2d_24">
      <g>
       <use style="stroke:#000000;stroke-width:0.8;" x="30.103125" xlink:href="#m917e67637e" y="143.406964"/>
      </g>
     </g>
     <g id="text_12">
      <!-- 0.4 -->
      <g transform="translate(7.2 147.206182)scale(0.1 -0.1)">
       <defs>
        <path d="M 2419 4116 
L 825 1625 
L 2419 1625 
L 2419 4116 
z
M 2253 4666 
L 3047 4666 
L 3047 1625 
L 3713 1625 
L 3713 1100 
L 3047 1100 
L 3047 0 
L 2419 0 
L 2419 1100 
L 313 1100 
L 313 1709 
L 2253 4666 
z
" id="DejaVuSans-34" transform="scale(0.015625)"/>
       </defs>
       <use xlink:href="#DejaVuSans-30"/>
       <use x="63.623047" xlink:href="#DejaVuSans-2e"/>
       <use x="95.410156" xlink:href="#DejaVuSans-34"/>
      </g>
     </g>
    </g>
    <g id="ytick_5">
     <g id="line2d_25">
      <path clip-path="url(#p09d443b377)" d="M 30.103125 101.3997 
L 387.223125 101.3997 
" style="fill:none;stroke:#b0b0b0;stroke-linecap:square;stroke-width:0.8;"/>
     </g>
     <g id="line2d_26">
      <g>
       <use style="stroke:#000000;stroke-width:0.8;" x="30.103125" xlink:href="#m917e67637e" y="101.3997"/>
      </g>
     </g>
     <g id="text_13">
      <!-- 0.5 -->
      <g transform="translate(7.2 105.198919)scale(0.1 -0.1)">
       <use xlink:href="#DejaVuSans-30"/>
       <use x="63.623047" xlink:href="#DejaVuSans-2e"/>
       <use x="95.410156" xlink:href="#DejaVuSans-35"/>
      </g>
     </g>
    </g>
    <g id="ytick_6">
     <g id="line2d_27">
      <path clip-path="url(#p09d443b377)" d="M 30.103125 59.392437 
L 387.223125 59.392437 
" style="fill:none;stroke:#b0b0b0;stroke-linecap:square;stroke-width:0.8;"/>
     </g>
     <g id="line2d_28">
      <g>
       <use style="stroke:#000000;stroke-width:0.8;" x="30.103125" xlink:href="#m917e67637e" y="59.392437"/>
      </g>
     </g>
     <g id="text_14">
      <!-- 0.6 -->
      <g transform="translate(7.2 63.191656)scale(0.1 -0.1)">
       <defs>
        <path d="M 2113 2584 
Q 1688 2584 1439 2293 
Q 1191 2003 1191 1497 
Q 1191 994 1439 701 
Q 1688 409 2113 409 
Q 2538 409 2786 701 
Q 3034 994 3034 1497 
Q 3034 2003 2786 2293 
Q 2538 2584 2113 2584 
z
M 3366 4563 
L 3366 3988 
Q 3128 4100 2886 4159 
Q 2644 4219 2406 4219 
Q 1781 4219 1451 3797 
Q 1122 3375 1075 2522 
Q 1259 2794 1537 2939 
Q 1816 3084 2150 3084 
Q 2853 3084 3261 2657 
Q 3669 2231 3669 1497 
Q 3669 778 3244 343 
Q 2819 -91 2113 -91 
Q 1303 -91 875 529 
Q 447 1150 447 2328 
Q 447 3434 972 4092 
Q 1497 4750 2381 4750 
Q 2619 4750 2861 4703 
Q 3103 4656 3366 4563 
z
" id="DejaVuSans-36" transform="scale(0.015625)"/>
       </defs>
       <use xlink:href="#DejaVuSans-30"/>
       <use x="63.623047" xlink:href="#DejaVuSans-2e"/>
       <use x="95.410156" xlink:href="#DejaVuSans-36"/>
      </g>
     </g>
    </g>
    <g id="ytick_7">
     <g id="line2d_29">
      <path clip-path="url(#p09d443b377)" d="M 30.103125 17.385174 
L 387.223125 17.385174 
" style="fill:none;stroke:#b0b0b0;stroke-linecap:square;stroke-width:0.8;"/>
     </g>
     <g id="line2d_30">
      <g>
       <use style="stroke:#000000;stroke-width:0.8;" x="30.103125" xlink:href="#m917e67637e" y="17.385174"/>
      </g>
     </g>
     <g id="text_15">
      <!-- 0.7 -->
      <g transform="translate(7.2 21.184392)scale(0.1 -0.1)">
       <defs>
        <path d="M 525 4666 
L 3525 4666 
L 3525 4397 
L 1831 0 
L 1172 0 
L 2766 4134 
L 525 4134 
L 525 4666 
z
" id="DejaVuSans-37" transform="scale(0.015625)"/>
       </defs>
       <use xlink:href="#DejaVuSans-30"/>
       <use x="63.623047" xlink:href="#DejaVuSans-2e"/>
       <use x="95.410156" xlink:href="#DejaVuSans-37"/>
      </g>
     </g>
    </g>
   </g>
   <g id="line2d_31">
    <path clip-path="url(#p09d443b377)" d="M 46.335852 19.296 
L 47.302086 20.344553 
L 48.26832 19.75062 
L 49.234554 20.196702 
L 50.200787 20.320942 
L 51.167021 20.572952 
L 52.133255 19.801598 
L 53.099489 20.069733 
L 54.065722 20.134582 
L 55.031956 20.057539 
L 55.99819 20.370718 
L 56.964424 20.174118 
L 57.930657 21.210302 
L 58.896891 20.050829 
L 59.863125 20.993195 
L 60.829359 19.706578 
L 61.795593 20.761265 
L 62.761826 21.287044 
L 63.72806 20.721354 
L 64.694294 21.198383 
L 65.660528 20.815523 
L 66.626761 21.112277 
L 67.592995 21.246207 
L 68.559229 21.551373 
L 69.525463 21.140169 
L 70.491696 21.519199 
L 71.45793 21.205845 
L 72.424164 21.508107 
L 73.390398 22.32433 
L 74.356631 21.117835 
L 75.322865 21.857366 
L 76.289099 22.120568 
L 77.255333 21.301291 
L 78.221567 21.301842 
L 79.1878 21.933783 
L 80.154034 21.744894 
L 81.120268 21.68042 
L 82.086502 22.964509 
L 83.052735 22.072695 
L 84.018969 22.389304 
L 84.985203 22.149062 
L 86.91767 23.183268 
L 87.883904 22.914632 
L 88.850138 23.46873 
L 89.816372 22.519754 
L 90.782606 23.107427 
L 91.748839 22.978355 
L 92.715073 23.761727 
L 93.681307 23.780857 
L 94.647541 23.317323 
L 95.613774 24.638293 
L 96.580008 23.576444 
L 97.546242 24.510047 
L 98.512476 24.101747 
L 99.478709 25.137155 
L 100.444943 25.126514 
L 101.411177 24.619264 
L 102.377411 25.950073 
L 104.309878 26.04284 
L 105.276112 25.213772 
L 106.242346 25.481407 
L 107.20858 26.461079 
L 108.174813 26.038433 
L 109.141047 27.042418 
L 110.107281 27.806286 
L 111.073515 27.041492 
L 113.005982 26.668221 
L 113.972216 27.82842 
L 114.93845 27.701927 
L 115.904683 28.465869 
L 116.870917 31.872327 
L 117.837151 30.295367 
L 118.803385 29.884138 
L 120.735852 29.775321 
L 121.702086 31.942159 
L 122.66832 31.776806 
L 123.634554 33.788131 
L 124.600787 32.880694 
L 125.567021 33.461031 
L 126.533255 34.361408 
L 127.499489 35.540861 
L 128.465722 36.938348 
L 129.431956 37.173107 
L 130.39819 36.755193 
L 132.330657 39.796292 
L 133.296891 37.481854 
L 134.263125 39.839208 
L 135.229359 41.792995 
L 136.195593 42.050488 
L 137.161826 42.668458 
L 138.12806 43.594649 
L 139.094294 44.845487 
L 140.060528 42.759497 
L 141.026761 48.092451 
L 141.992995 47.502925 
L 142.959229 49.038422 
L 143.925463 47.568675 
L 144.891696 47.766377 
L 145.85793 50.522015 
L 146.824164 49.384451 
L 147.790398 53.652551 
L 148.756631 53.852232 
L 149.722865 54.527314 
L 150.689099 55.854994 
L 151.655333 56.215345 
L 152.621567 54.036839 
L 153.5878 60.890868 
L 154.554034 61.243081 
L 155.520268 59.500142 
L 156.486502 64.361048 
L 157.452735 65.219936 
L 158.418969 65.478482 
L 159.385203 63.156056 
L 160.351437 68.799784 
L 161.31767 65.090488 
L 162.283904 66.806637 
L 163.250138 72.889763 
L 164.216372 71.57668 
L 165.182606 75.30841 
L 166.148839 74.533325 
L 167.115073 75.885242 
L 168.081307 76.02751 
L 169.047541 81.608217 
L 170.013774 82.083994 
L 170.980008 80.726193 
L 171.946242 82.408565 
L 172.912476 82.527172 
L 173.878709 86.619428 
L 174.844943 88.584508 
L 175.811177 91.757459 
L 176.777411 85.997728 
L 177.743644 89.380024 
L 178.709878 87.890797 
L 179.676112 93.182437 
L 180.642346 93.654183 
L 181.60858 100.041924 
L 182.574813 98.127498 
L 183.541047 102.906316 
L 184.507281 98.33499 
L 185.473515 101.710137 
L 186.439748 106.275004 
L 187.405982 105.334817 
L 188.372216 107.632767 
L 189.33845 107.040211 
L 190.304683 116.873745 
L 191.270917 108.79691 
L 192.237151 111.916154 
L 193.203385 113.061918 
L 195.135852 116.02814 
L 196.102086 119.396114 
L 197.06832 117.048212 
L 198.034554 119.616902 
L 199.000787 120.873348 
L 199.967021 124.849064 
L 200.933255 126.716694 
L 201.899489 125.444236 
L 202.865722 129.040259 
L 203.831956 131.623796 
L 204.79819 132.941849 
L 205.764424 131.671519 
L 206.730657 132.581298 
L 207.696891 136.337866 
L 208.663125 141.249362 
L 209.629359 141.229995 
L 210.595593 135.3379 
L 211.561826 143.61533 
L 212.52806 145.620971 
L 213.494294 144.84387 
L 214.460528 146.75687 
L 215.426761 146.941603 
L 216.392995 142.294886 
L 217.359229 145.3294 
L 218.325463 146.792487 
L 219.291696 149.833336 
L 220.25793 151.633701 
L 221.224164 154.222697 
L 222.190398 152.682517 
L 223.156631 153.874828 
L 224.122865 157.858806 
L 225.089099 156.566768 
L 226.055333 161.999574 
L 227.021567 157.600611 
L 228.954034 163.910533 
L 229.920268 157.324051 
L 230.886502 163.876907 
L 231.852735 168.075376 
L 232.818969 165.784148 
L 233.785203 171.532699 
L 234.751437 174.000146 
L 235.71767 171.726883 
L 236.683904 170.249475 
L 237.650138 179.157657 
L 238.616372 172.025828 
L 239.582606 175.404343 
L 240.548839 175.591943 
L 241.515073 180.106006 
L 242.481307 173.912951 
L 244.413774 180.531144 
L 245.380008 178.982389 
L 246.346242 179.428971 
L 247.312476 184.255125 
L 248.278709 185.216132 
L 249.244943 179.401229 
L 250.211177 187.448445 
L 251.177411 191.467189 
L 252.143644 192.143573 
L 253.109878 190.691665 
L 254.076112 192.365474 
L 255.042346 194.435402 
L 256.00858 193.157423 
L 256.974813 191.6221 
L 257.941047 193.665149 
L 258.907281 190.625414 
L 259.873515 192.614781 
L 260.839748 192.099806 
L 261.805982 194.957838 
L 262.772216 198.724572 
L 263.73845 203.621834 
L 264.704683 195.815061 
L 265.670917 202.31426 
L 266.637151 206.738968 
L 267.603385 204.321729 
L 268.569619 200.621785 
L 269.535852 204.042402 
L 270.502086 205.411458 
L 271.46832 207.613994 
L 272.434554 202.395346 
L 273.400787 203.494301 
L 274.367021 201.690969 
L 275.333255 206.125837 
L 276.299489 212.607803 
L 277.265722 211.943062 
L 278.231956 207.358184 
L 279.19819 208.423688 
L 280.164424 211.730975 
L 281.130657 214.307571 
L 282.096891 210.824671 
L 283.063125 214.151301 
L 284.029359 216.943839 
L 284.995593 214.658132 
L 285.961826 213.446242 
L 286.92806 219.224013 
L 287.894294 217.304284 
L 288.860528 219.535032 
L 289.826761 220.049381 
L 290.792995 219.547225 
L 291.759229 218.701407 
L 292.725463 221.36153 
L 293.691696 227.477256 
L 295.624164 223.477215 
L 296.590398 221.010819 
L 297.556631 225.04396 
L 298.522865 229.822047 
L 300.455333 222.410503 
L 301.421567 228.596723 
L 302.3878 229.034912 
L 303.354034 226.373218 
L 304.320268 227.6985 
L 305.286502 226.886509 
L 306.252735 229.799637 
L 307.218969 230.701472 
L 308.185203 227.872391 
L 309.151437 229.476825 
L 310.11767 230.023236 
L 311.083904 231.772748 
L 312.050138 238.954647 
L 313.016372 236.358064 
L 313.982606 229.625427 
L 314.948839 233.91804 
L 315.915073 235.390704 
L 316.881307 228.550941 
L 317.847541 235.68369 
L 318.813774 238.917934 
L 319.780008 235.268805 
L 320.746242 235.268618 
L 321.712476 235.93806 
L 322.678709 231.872212 
L 323.644943 241.039359 
L 324.611177 239.421423 
L 325.577411 238.428774 
L 326.543644 238.439678 
L 327.509878 242.141757 
L 328.476112 237.670984 
L 329.442346 242.153781 
L 330.40858 241.199929 
L 331.374813 239.035201 
L 332.341047 239.360292 
L 333.307281 235.295759 
L 334.273515 241.428291 
L 336.205982 246.371567 
L 337.172216 245.917567 
L 338.13845 242.28671 
L 339.104683 246.276071 
L 340.070917 244.617473 
L 341.037151 248.895802 
L 342.003385 246.492471 
L 342.969619 247.433472 
L 343.935852 247.769536 
L 344.902086 246.186785 
L 345.86832 246.631002 
L 346.834554 245.219681 
L 347.800787 247.228659 
L 348.767021 251.028237 
L 349.733255 247.69807 
L 350.699489 250.145669 
L 351.665722 248.273187 
L 352.631956 252.261942 
L 353.59819 248.584238 
L 354.564424 250.132342 
L 355.530657 253.499634 
L 356.496891 250.648375 
L 357.463125 254.371642 
L 358.429359 254.212317 
L 359.395593 257.229086 
L 360.361826 255.887785 
L 361.32806 256.014116 
L 362.294294 250.614924 
L 363.260528 255.638617 
L 364.226761 255.441108 
L 365.192995 254.974188 
L 366.159229 248.31092 
L 367.125463 255.138746 
L 368.091696 255.965767 
L 369.05793 261.216 
L 370.024164 254.44732 
L 370.990398 257.780053 
L 370.990398 257.780053 
" style="fill:none;stroke:#0000ff;stroke-dasharray:5.55,2.4;stroke-dashoffset:0;stroke-width:1.5;"/>
   </g>
   <g id="line2d_32">
    <path clip-path="url(#p09d443b377)" d="M 46.335852 20.316485 
L 58.896891 21.384618 
L 62.761826 21.86956 
L 73.390398 22.807969 
L 83.052735 24.301227 
L 92.715073 26.237838 
L 93.681307 26.598039 
L 98.512476 27.807914 
L 104.309878 29.854017 
L 105.276112 30.267925 
L 106.242346 30.531102 
L 107.20858 31.127088 
L 111.073515 32.643456 
L 112.039748 33.298283 
L 113.005982 33.65638 
L 113.972216 34.150185 
L 114.93845 34.807815 
L 115.904683 35.142402 
L 117.837151 36.665405 
L 118.803385 37.223308 
L 119.769619 37.216122 
L 120.735852 38.325343 
L 121.702086 38.75485 
L 122.66832 39.838056 
L 124.600787 41.554706 
L 125.567021 42.178109 
L 126.533255 43.002819 
L 127.499489 43.500956 
L 128.465722 44.931643 
L 129.431956 45.554896 
L 130.39819 46.432388 
L 131.364424 47.956869 
L 132.330657 49.101819 
L 133.296891 49.645325 
L 135.229359 52.470094 
L 137.161826 54.872767 
L 138.12806 55.667106 
L 139.094294 57.456392 
L 141.026761 59.721505 
L 142.959229 63.206533 
L 143.925463 63.776054 
L 144.891696 65.861718 
L 145.85793 67.454077 
L 146.824164 65.434314 
L 147.790398 69.379295 
L 148.756631 70.279847 
L 149.722865 72.876818 
L 150.689099 74.396992 
L 151.655333 76.377144 
L 152.621567 77.586693 
L 153.5878 79.431739 
L 154.554034 78.224218 
L 155.520268 82.787445 
L 156.486502 83.68344 
L 157.452735 83.404764 
L 158.418969 87.793598 
L 159.385203 89.399829 
L 160.351437 91.459153 
L 164.216372 96.963969 
L 165.182606 98.182807 
L 166.148839 100.690766 
L 167.115073 100.901739 
L 170.013774 108.185237 
L 170.980008 109.677694 
L 171.946242 111.440226 
L 172.912476 112.645005 
L 173.878709 114.047762 
L 174.844943 116.342108 
L 175.811177 115.249024 
L 177.743644 118.725401 
L 178.709878 121.40426 
L 179.676112 123.695763 
L 180.642346 123.231804 
L 181.60858 124.426092 
L 182.574813 128.208688 
L 183.541047 129.99453 
L 184.507281 127.457627 
L 185.473515 131.427696 
L 186.439748 134.122967 
L 187.405982 135.222586 
L 188.372216 135.99081 
L 189.33845 138.563919 
L 190.304683 134.191622 
L 191.270917 139.289253 
L 192.237151 142.126641 
L 193.203385 142.570883 
L 194.169619 142.022557 
L 195.135852 145.895929 
L 196.102086 146.46406 
L 197.06832 137.585699 
L 198.034554 149.200794 
L 199.000787 147.278668 
L 199.967021 143.577084 
L 200.933255 151.827723 
L 201.899489 153.682233 
L 202.865722 146.464386 
L 203.831956 155.333508 
L 204.79819 156.520022 
L 205.764424 158.361224 
L 206.730657 158.774644 
L 207.696891 160.44804 
L 208.663125 161.310871 
L 209.629359 157.726266 
L 210.595593 161.460663 
L 211.561826 161.96079 
L 212.52806 158.803112 
L 213.494294 164.301456 
L 214.460528 161.379501 
L 215.426761 167.672084 
L 216.392995 168.625917 
L 217.359229 169.365411 
L 219.291696 165.676821 
L 220.25793 170.957795 
L 221.224164 170.076548 
L 222.190398 173.36773 
L 223.156631 169.460969 
L 224.122865 168.427915 
L 225.089099 171.160918 
L 226.055333 172.756007 
L 227.021567 177.272349 
L 227.9878 177.839679 
L 228.954034 177.049596 
L 229.920268 178.298581 
L 230.886502 175.10128 
L 231.852735 177.613821 
L 232.818969 180.967912 
L 233.785203 181.330604 
L 234.751437 177.133149 
L 235.71767 179.513814 
L 236.683904 183.039153 
L 237.650138 166.395645 
L 238.616372 184.103368 
L 240.548839 184.119568 
L 241.515073 178.818576 
L 242.481307 186.217375 
L 243.447541 185.274896 
L 244.413774 186.438601 
L 245.380008 182.31745 
L 246.346242 188.131864 
L 247.312476 186.618238 
L 248.278709 188.180677 
L 249.244943 188.99417 
L 250.211177 185.950454 
L 251.177411 188.57374 
L 252.143644 187.894639 
L 253.109878 190.850771 
L 254.076112 189.170452 
L 255.042346 188.912483 
L 256.00858 192.260627 
L 256.974813 191.543643 
L 257.941047 191.689554 
L 258.907281 191.164188 
L 259.873515 184.646749 
L 260.839748 193.764063 
L 261.805982 192.23982 
L 262.772216 189.469622 
L 263.73845 194.601543 
L 264.704683 194.718184 
L 265.670917 195.42181 
L 266.637151 195.075881 
L 267.603385 195.166832 
L 268.569619 196.07268 
L 269.535852 192.271869 
L 270.502086 195.597766 
L 271.46832 195.854834 
L 272.434554 196.926185 
L 273.400787 194.960955 
L 274.367021 197.58185 
L 275.333255 194.041762 
L 276.299489 196.22629 
L 277.265722 196.925684 
L 278.231956 196.634677 
L 279.19819 195.419218 
L 280.164424 197.575778 
L 281.130657 198.366186 
L 282.096891 197.774419 
L 283.063125 198.731445 
L 284.029359 198.874939 
L 284.995593 196.942647 
L 285.961826 199.229669 
L 286.92806 196.854112 
L 287.894294 198.195 
L 288.860528 198.316147 
L 289.826761 199.794457 
L 290.792995 199.879775 
L 291.759229 200.161932 
L 293.691696 200.130859 
L 294.65793 199.409569 
L 295.624164 198.939951 
L 296.590398 196.78557 
L 297.556631 198.022886 
L 298.522865 198.435693 
L 299.489099 199.764862 
L 300.455333 200.26683 
L 301.421567 200.332242 
L 302.3878 196.1922 
L 303.354034 199.624823 
L 304.320268 199.881453 
L 305.286502 200.331165 
L 306.252735 200.546082 
L 307.218969 199.218927 
L 308.185203 195.732447 
L 309.151437 200.747101 
L 310.11767 195.755582 
L 311.083904 201.024363 
L 312.050138 200.244358 
L 313.016372 200.284857 
L 313.982606 200.728636 
L 314.948839 200.355803 
L 315.915073 198.050116 
L 316.881307 198.96221 
L 317.847541 199.603215 
L 318.813774 200.80976 
L 319.780008 196.949658 
L 320.746242 200.616677 
L 321.712476 200.971419 
L 322.678709 201.780581 
L 323.644943 200.507122 
L 324.611177 200.225905 
L 325.577411 201.191493 
L 327.509878 200.558889 
L 328.476112 199.384318 
L 329.442346 200.920404 
L 330.40858 200.326634 
L 331.374813 198.438259 
L 332.341047 200.545305 
L 333.307281 198.060582 
L 334.273515 201.338844 
L 336.205982 200.558951 
L 337.172216 197.756304 
L 338.13845 199.568712 
L 339.104683 200.15566 
L 340.070917 200.11849 
L 341.037151 198.886156 
L 342.003385 199.6508 
L 345.86832 199.371861 
L 346.834554 199.766327 
L 347.800787 199.731974 
L 348.767021 199.226076 
L 349.733255 199.804322 
L 350.699489 193.593815 
L 351.665722 196.211517 
L 352.631956 199.6507 
L 353.59819 199.045963 
L 354.564424 199.806613 
L 355.530657 199.681923 
L 356.496891 198.713217 
L 357.463125 199.389263 
L 358.429359 199.05062 
L 359.395593 198.24937 
L 361.32806 197.538471 
L 362.294294 196.600812 
L 363.260528 197.715905 
L 364.226761 197.738076 
L 365.192995 196.189296 
L 366.159229 196.737359 
L 367.125463 198.028658 
L 368.091696 198.421997 
L 369.05793 197.696375 
L 370.024164 197.908712 
L 370.990398 197.635281 
L 370.990398 197.635281 
" style="fill:none;stroke:#ff0000;stroke-dasharray:1.5,2.475;stroke-dashoffset:0;stroke-width:1.5;"/>
   </g>
   <g id="patch_3">
    <path d="M 30.103125 273.312 
L 30.103125 7.2 
" style="fill:none;stroke:#000000;stroke-linecap:square;stroke-linejoin:miter;stroke-width:0.8;"/>
   </g>
   <g id="patch_4">
    <path d="M 387.223125 273.312 
L 387.223125 7.2 
" style="fill:none;stroke:#000000;stroke-linecap:square;stroke-linejoin:miter;stroke-width:0.8;"/>
   </g>
   <g id="patch_5">
    <path d="M 30.103125 273.312 
L 387.223125 273.312 
" style="fill:none;stroke:#000000;stroke-linecap:square;stroke-linejoin:miter;stroke-width:0.8;"/>
   </g>
   <g id="patch_6">
    <path d="M 30.103125 7.2 
L 387.223125 7.2 
" style="fill:none;stroke:#000000;stroke-linecap:square;stroke-linejoin:miter;stroke-width:0.8;"/>
   </g>
   <g id="legend_1">
    <g id="patch_7">
     <path d="M 302.454375 44.55625 
L 380.223125 44.55625 
Q 382.223125 44.55625 382.223125 42.55625 
L 382.223125 14.2 
Q 382.223125 12.2 380.223125 12.2 
L 302.454375 12.2 
Q 300.454375 12.2 300.454375 14.2 
L 300.454375 42.55625 
Q 300.454375 44.55625 302.454375 44.55625 
z
" style="fill:#ffffff;opacity:0.8;stroke:#cccccc;stroke-linejoin:miter;"/>
    </g>
    <g id="line2d_33">
     <path d="M 304.454375 20.298437 
L 324.454375 20.298437 
" style="fill:none;stroke:#0000ff;stroke-dasharray:5.55,2.4;stroke-dashoffset:0;stroke-width:1.5;"/>
    </g>
    <g id="line2d_34"/>
    <g id="text_16">
     <!-- train loss -->
     <g transform="translate(332.454375 23.798437)scale(0.1 -0.1)">
      <defs>
       <path d="M 1172 4494 
L 1172 3500 
L 2356 3500 
L 2356 3053 
L 1172 3053 
L 1172 1153 
Q 1172 725 1289 603 
Q 1406 481 1766 481 
L 2356 481 
L 2356 0 
L 1766 0 
Q 1100 0 847 248 
Q 594 497 594 1153 
L 594 3053 
L 172 3053 
L 172 3500 
L 594 3500 
L 594 4494 
L 1172 4494 
z
" id="DejaVuSans-74" transform="scale(0.015625)"/>
       <path d="M 2631 2963 
Q 2534 3019 2420 3045 
Q 2306 3072 2169 3072 
Q 1681 3072 1420 2755 
Q 1159 2438 1159 1844 
L 1159 0 
L 581 0 
L 581 3500 
L 1159 3500 
L 1159 2956 
Q 1341 3275 1631 3429 
Q 1922 3584 2338 3584 
Q 2397 3584 2469 3576 
Q 2541 3569 2628 3553 
L 2631 2963 
z
" id="DejaVuSans-72" transform="scale(0.015625)"/>
       <path d="M 2194 1759 
Q 1497 1759 1228 1600 
Q 959 1441 959 1056 
Q 959 750 1161 570 
Q 1363 391 1709 391 
Q 2188 391 2477 730 
Q 2766 1069 2766 1631 
L 2766 1759 
L 2194 1759 
z
M 3341 1997 
L 3341 0 
L 2766 0 
L 2766 531 
Q 2569 213 2275 61 
Q 1981 -91 1556 -91 
Q 1019 -91 701 211 
Q 384 513 384 1019 
Q 384 1609 779 1909 
Q 1175 2209 1959 2209 
L 2766 2209 
L 2766 2266 
Q 2766 2663 2505 2880 
Q 2244 3097 1772 3097 
Q 1472 3097 1187 3025 
Q 903 2953 641 2809 
L 641 3341 
Q 956 3463 1253 3523 
Q 1550 3584 1831 3584 
Q 2591 3584 2966 3190 
Q 3341 2797 3341 1997 
z
" id="DejaVuSans-61" transform="scale(0.015625)"/>
       <path d="M 603 3500 
L 1178 3500 
L 1178 0 
L 603 0 
L 603 3500 
z
M 603 4863 
L 1178 4863 
L 1178 4134 
L 603 4134 
L 603 4863 
z
" id="DejaVuSans-69" transform="scale(0.015625)"/>
       <path d="M 3513 2113 
L 3513 0 
L 2938 0 
L 2938 2094 
Q 2938 2591 2744 2837 
Q 2550 3084 2163 3084 
Q 1697 3084 1428 2787 
Q 1159 2491 1159 1978 
L 1159 0 
L 581 0 
L 581 3500 
L 1159 3500 
L 1159 2956 
Q 1366 3272 1645 3428 
Q 1925 3584 2291 3584 
Q 2894 3584 3203 3211 
Q 3513 2838 3513 2113 
z
" id="DejaVuSans-6e" transform="scale(0.015625)"/>
       <path id="DejaVuSans-20" transform="scale(0.015625)"/>
       <path d="M 603 4863 
L 1178 4863 
L 1178 0 
L 603 0 
L 603 4863 
z
" id="DejaVuSans-6c" transform="scale(0.015625)"/>
       <path d="M 1959 3097 
Q 1497 3097 1228 2736 
Q 959 2375 959 1747 
Q 959 1119 1226 758 
Q 1494 397 1959 397 
Q 2419 397 2687 759 
Q 2956 1122 2956 1747 
Q 2956 2369 2687 2733 
Q 2419 3097 1959 3097 
z
M 1959 3584 
Q 2709 3584 3137 3096 
Q 3566 2609 3566 1747 
Q 3566 888 3137 398 
Q 2709 -91 1959 -91 
Q 1206 -91 779 398 
Q 353 888 353 1747 
Q 353 2609 779 3096 
Q 1206 3584 1959 3584 
z
" id="DejaVuSans-6f" transform="scale(0.015625)"/>
       <path d="M 2834 3397 
L 2834 2853 
Q 2591 2978 2328 3040 
Q 2066 3103 1784 3103 
Q 1356 3103 1142 2972 
Q 928 2841 928 2578 
Q 928 2378 1081 2264 
Q 1234 2150 1697 2047 
L 1894 2003 
Q 2506 1872 2764 1633 
Q 3022 1394 3022 966 
Q 3022 478 2636 193 
Q 2250 -91 1575 -91 
Q 1294 -91 989 -36 
Q 684 19 347 128 
L 347 722 
Q 666 556 975 473 
Q 1284 391 1588 391 
Q 1994 391 2212 530 
Q 2431 669 2431 922 
Q 2431 1156 2273 1281 
Q 2116 1406 1581 1522 
L 1381 1569 
Q 847 1681 609 1914 
Q 372 2147 372 2553 
Q 372 3047 722 3315 
Q 1072 3584 1716 3584 
Q 2034 3584 2315 3537 
Q 2597 3491 2834 3397 
z
" id="DejaVuSans-73" transform="scale(0.015625)"/>
      </defs>
      <use xlink:href="#DejaVuSans-74"/>
      <use x="39.208984" xlink:href="#DejaVuSans-72"/>
      <use x="80.322266" xlink:href="#DejaVuSans-61"/>
      <use x="141.601562" xlink:href="#DejaVuSans-69"/>
      <use x="169.384766" xlink:href="#DejaVuSans-6e"/>
      <use x="232.763672" xlink:href="#DejaVuSans-20"/>
      <use x="264.550781" xlink:href="#DejaVuSans-6c"/>
      <use x="292.333984" xlink:href="#DejaVuSans-6f"/>
      <use x="353.515625" xlink:href="#DejaVuSans-73"/>
      <use x="405.615234" xlink:href="#DejaVuSans-73"/>
     </g>
    </g>
    <g id="line2d_35">
     <path d="M 304.454375 34.976562 
L 324.454375 34.976562 
" style="fill:none;stroke:#ff0000;stroke-dasharray:1.5,2.475;stroke-dashoffset:0;stroke-width:1.5;"/>
    </g>
    <g id="line2d_36"/>
    <g id="text_17">
     <!-- val loss -->
     <g transform="translate(332.454375 38.476562)scale(0.1 -0.1)">
      <defs>
       <path d="M 191 3500 
L 800 3500 
L 1894 563 
L 2988 3500 
L 3597 3500 
L 2284 0 
L 1503 0 
L 191 3500 
z
" id="DejaVuSans-76" transform="scale(0.015625)"/>
      </defs>
      <use xlink:href="#DejaVuSans-76"/>
      <use x="59.179688" xlink:href="#DejaVuSans-61"/>
      <use x="120.458984" xlink:href="#DejaVuSans-6c"/>
      <use x="148.242188" xlink:href="#DejaVuSans-20"/>
      <use x="180.029297" xlink:href="#DejaVuSans-6c"/>
      <use x="207.8125" xlink:href="#DejaVuSans-6f"/>
      <use x="268.994141" xlink:href="#DejaVuSans-73"/>
      <use x="321.09375" xlink:href="#DejaVuSans-73"/>
     </g>
    </g>
   </g>
  </g>
 </g>
 <defs>
  <clipPath id="p09d443b377">
   <rect height="266.112" width="357.12" x="30.103125" y="7.2"/>
  </clipPath>
 </defs>
</svg>
